<svg width="15" height="15" viewBox="0 0 15 15" fill="none" xmlns="http://www.w3.org/2000/svg">
<path fill-rule="evenodd" clip-rule="evenodd" d="M0.253851 14.4796C-0.084617 14.1411 -0.084617 13.5923 0.253851 13.2539L11.7744 1.73333H4.33334C3.85469 1.73333 3.46667 1.34531 3.46667 0.866667C3.46667 0.388024 3.85469 0 4.33334 0H13.8667C14.0965 0 14.317 0.0913121 14.4796 0.253847C14.642 0.416381 14.7333 0.636809 14.7333 0.866667V10.4C14.7333 10.8787 14.3452 11.2667 13.8667 11.2667C13.3881 11.2667 13 10.8787 13 10.4V2.95899L1.47949 14.4796C1.14104 14.8179 0.592302 14.8179 0.253851 14.4796Z" fill="black"/>
</svg>
