<svg width="119" height="119" viewBox="0 0 119 119" fill="none" xmlns="http://www.w3.org/2000/svg">
<path d="M118.104 69.6489C117.594 72.5013 111.498 74.3431 102.562 74.3431H102.336C98.9952 71.6229 94.9377 68.8555 90.3705 66.258C89.0589 65.5119 87.7473 64.8035 86.4356 64.1423C87.9077 63.9534 89.3797 63.7362 90.8612 63.4811C95.9096 62.6027 100.684 61.3749 104.865 59.9203C113.206 62.8767 118.641 66.6169 118.094 69.6394L118.104 69.6489ZM111.036 88.7943C110.215 90.1922 108.045 90.4849 106.365 90.4849C103.279 90.4849 99.1651 89.5499 94.5885 87.8875C92.8145 84.9123 90.6065 81.7576 88.0398 78.5462C87.9549 78.4423 87.8605 78.329 87.7756 78.2251C87.5586 77.9512 87.3415 77.6867 87.1151 77.4128C86.7942 77.0256 86.4734 76.6383 86.1431 76.2605C85.1712 75.1176 84.1804 74.0125 83.1896 72.9547C84.6145 73.2664 86.0676 73.5592 87.568 73.8142C92.5409 74.6737 97.4949 75.146 101.958 75.1837C108.771 80.7753 112.583 86.1307 111.026 88.7848L111.036 88.7943ZM79.8586 114.58C79.5944 114.674 79.3019 114.721 78.9999 114.721C76.0181 114.721 71.819 110.263 67.8463 103.434C68.5635 99.2312 68.9598 94.3953 68.9598 89.2098C68.9598 87.727 68.9221 86.2535 68.856 84.8084C69.743 85.9513 70.6677 87.0941 71.6491 88.2464C74.0648 91.08 76.5559 93.6869 79.0188 95.9632C79.953 96.8227 80.8683 97.6444 81.7836 98.4095C83.35 107.014 82.7838 113.531 79.8586 114.58ZM59.5047 118.122C56.3813 118.122 53.5882 112.19 52.0784 103.567C54.2299 99.8357 56.2964 95.4248 58.0704 90.6077C58.5894 89.2004 59.0612 87.812 59.5047 86.4424C59.9388 87.812 60.42 89.2004 60.939 90.6077C62.713 95.4153 64.7796 99.8262 66.931 103.567C65.4212 112.19 62.6281 118.122 59.5047 118.122ZM40.0095 114.731C39.7076 114.731 39.415 114.684 39.1508 114.589C36.2162 113.541 35.65 107.023 37.2258 98.4189C40.5568 95.6231 44.0293 92.1568 47.3509 88.2559C48.3322 87.113 49.257 85.9607 50.144 84.8178C50.0779 86.2535 50.0402 87.7175 50.0402 89.2193C50.0402 94.4047 50.446 99.2406 51.1537 103.444C47.1905 110.273 42.9819 114.731 40.0095 114.731ZM23.2791 105.031C22.4299 105.031 21.7505 104.823 21.2503 104.407C19.5801 103.028 19.8821 99.3351 22.0807 94.2725C22.8639 92.4684 23.8547 90.5511 25.0248 88.577C29.1484 87.0563 33.6306 84.969 38.094 82.4282C39.4056 81.682 40.6795 80.917 41.9156 80.1425C41.3495 81.4742 40.8116 82.8344 40.2926 84.2417C38.4903 89.1343 37.1881 93.8286 36.3954 98.0317C31.1678 102.395 26.3931 105.031 23.2886 105.031H23.2791ZM12.6351 90.4944C10.9554 90.4944 8.78511 90.2016 7.96416 88.8037C6.40718 86.1402 10.2194 80.7942 17.0323 75.2026C21.4862 75.1648 26.4402 74.6926 31.4226 73.8331C32.9229 73.5686 34.3855 73.2758 35.8104 72.9736C34.8196 74.0314 33.8288 75.1365 32.8569 76.2794C29.5542 80.1614 26.6856 84.1378 24.4303 87.9064C19.8443 89.5782 15.7302 90.5133 12.6351 90.5133V90.4944ZM16.4379 74.3526C7.51122 74.3526 1.41543 72.5107 0.896437 69.6583C0.358574 66.6358 5.78439 62.8955 14.1166 59.9392C18.193 61.3654 22.9489 62.5933 28.1293 63.4906C29.6108 63.7456 31.0923 63.9723 32.5549 64.1612C31.2433 64.8224 29.9411 65.5307 28.62 66.2769C24.0529 68.8744 20.0048 71.6418 16.6643 74.362H16.4284L16.4379 74.3526ZM7.96416 30.1396C8.78511 28.7417 10.9554 28.4489 12.6351 28.4489C15.7207 28.4489 19.8349 29.384 24.4115 31.0464C26.6101 34.7205 29.4598 38.6875 32.8474 42.6734C33.8194 43.8163 34.8102 44.9213 35.801 45.9792C34.3761 45.6675 32.9135 45.3747 31.4131 45.1197C28.8182 44.6663 26.2232 44.3263 23.7037 44.0902C21.4013 43.8824 19.1555 43.769 17.0229 43.7501C10.21 38.1586 6.39775 32.8126 7.95472 30.1491L7.96416 30.1396ZM21.2503 14.5362C21.7505 14.1206 22.4299 13.9128 23.2791 13.9128C26.3836 13.9128 31.1678 16.5574 36.3954 20.9117C37.1881 25.1148 38.4808 29.809 40.2926 34.6922C40.8116 36.0995 41.3589 37.4691 41.9156 38.8009C40.6889 38.0263 39.415 37.2613 38.094 36.5151C33.6401 33.9744 29.1673 31.8964 25.0437 30.3757C20.5804 22.8196 18.8535 16.5102 21.2409 14.5362H21.2503ZM39.1508 4.35423C39.415 4.25978 39.7076 4.21256 40.0095 4.21256C42.9819 4.21256 47.1905 8.67069 51.1537 15.4901C50.4365 19.6932 50.0402 24.5292 50.0402 29.724C50.0402 30.2246 50.0402 30.7252 50.0496 31.2258C50.0496 31.5753 50.0591 31.9248 50.0779 32.2742C50.0779 32.4065 50.0779 32.5481 50.0874 32.6804C50.0968 33.1715 50.1251 33.6532 50.144 34.1255C49.257 32.9826 48.3322 31.8397 47.3509 30.6874C44.0293 26.7866 40.5568 23.3202 37.2258 20.5244C35.65 11.9198 36.2162 5.4121 39.1508 4.35423ZM78.9999 4.21256C79.3019 4.21256 79.585 4.25978 79.8586 4.35423C81.8968 5.08151 82.8971 8.66124 82.5951 14.1583C82.4913 16.1229 82.2177 18.2576 81.8119 20.5055C78.4809 23.3107 74.9895 26.7771 71.6585 30.6874C70.6866 31.8303 69.7619 32.9732 68.8654 34.1255C68.9315 32.6898 68.9692 31.2258 68.9692 29.724C68.9692 29.2045 68.9692 28.6945 68.9598 28.175C68.9598 28.1183 68.9598 28.0617 68.9598 28.005C68.9598 27.58 68.9409 27.1549 68.9315 26.7299C68.9221 26.3615 68.9032 26.0121 68.8937 25.6531C68.8937 25.5398 68.8937 25.4265 68.8843 25.3226C68.7239 21.7901 68.3747 18.4842 67.8652 15.4901C71.8378 8.66124 76.0369 4.21256 79.0188 4.21256H78.9999ZM95.7303 13.9128C96.5701 13.9128 97.259 14.13 97.7591 14.5362C100.146 16.5102 98.4291 22.8196 93.9657 30.3757C89.8421 31.8964 85.3788 33.9744 80.9249 36.5151C79.6038 37.2613 78.3299 38.0263 77.1032 38.8009C77.6694 37.4691 78.2073 36.0995 78.7263 34.6922C80.4814 29.9318 81.8025 25.2187 82.6045 20.9211C87.8322 16.548 92.6258 13.9033 95.7303 13.9033V13.9128ZM106.374 28.4489C108.054 28.4489 110.224 28.7417 111.045 30.1396C112.13 32.0003 110.564 35.3628 106.752 39.3865C105.393 40.8221 103.798 42.2861 102.015 43.7407C97.5515 43.7785 92.5786 44.2507 87.5963 45.1102C86.0959 45.3653 84.6333 45.6581 83.2179 45.9698C84.2087 44.9119 85.1901 43.8068 86.1714 42.6639C89.559 38.6875 92.4088 34.7205 94.6074 31.0369C99.184 29.3746 103.298 28.4395 106.384 28.4395L106.374 28.4489ZM75.4613 59.4669C78.4904 58.4563 81.7459 57.1056 85.0768 55.4716C86.9358 55.6889 88.8324 55.9533 90.7291 56.2839C95.3717 57.0868 99.7407 58.2013 103.572 59.4764C99.6935 60.7704 95.3246 61.8566 90.7291 62.65C88.8324 62.9806 86.9452 63.245 85.0768 63.4623C81.7364 61.8282 78.4809 60.4776 75.4519 59.4669H75.4613ZM75.8954 64.0195C75.0178 64.0195 74.1686 64.0006 73.3476 63.9629C71.8945 62.8672 70.479 61.9227 69.1485 61.1387C70.6866 60.8554 72.338 60.4398 74.0931 59.9014C77.0089 60.8176 80.1889 62.0738 83.4632 63.6228C80.8305 63.8778 78.2828 64.0101 75.8954 64.0101V64.0195ZM74.4988 64.8507C74.9612 64.8601 75.4142 64.8696 75.8954 64.8696C78.7263 64.8696 81.7836 64.6901 84.9258 64.3407C86.5866 65.1624 88.2757 66.0502 89.9459 67.0136C94.0318 69.3372 97.7497 71.8496 100.901 74.3431C96.7777 74.2487 92.2672 73.7859 87.7378 73.0019C85.8223 72.6713 83.9539 72.2841 82.1422 71.859C79.5661 69.1955 76.9711 66.8342 74.4894 64.8696L74.4988 64.8507ZM93.258 87.3964C89.4741 85.9324 85.4071 83.9961 81.3495 81.6915C79.6604 80.7375 78.0374 79.7363 76.4899 78.7257C74.9895 75.3443 73.3759 72.2652 71.7246 69.5922C74.6687 70.7162 78.0374 71.7457 81.7175 72.6146C82.9914 73.9464 84.2559 75.3443 85.5015 76.8083C88.5305 80.3691 91.1538 83.9867 93.258 87.3869V87.3964ZM72.3191 87.7081C71.0735 86.2441 69.894 84.7612 68.7805 83.2877C68.554 79.6608 68.1105 76.2133 67.4877 73.1152C69.8562 75.1648 72.6588 77.2617 75.7916 79.3018C76.5371 80.9831 77.2353 82.7304 77.9053 84.525C79.5189 88.8982 80.7362 93.1863 81.5288 97.0966C81.274 96.8793 81.0287 96.6527 80.7645 96.426C77.9714 93.923 75.0933 90.9761 72.3096 87.7081H72.3191ZM57.4382 73.6914C58.278 72.0857 58.9763 70.565 59.5141 69.1388C60.052 70.565 60.7503 72.0857 61.5901 73.6914C61.1844 76.6666 60.4955 79.963 59.5141 83.4294C58.5422 79.963 57.8439 76.6572 57.4382 73.6914ZM52.6352 72.1235C53.5222 71.3207 54.3431 70.5084 55.098 69.715C55.4755 69.3183 55.8246 68.931 56.1549 68.5532C56.1643 70.0739 56.2964 71.7457 56.5229 73.5308C55.1074 76.1849 53.3146 79.0563 51.1914 81.9843C51.4745 78.3951 51.9746 75.0515 52.6257 72.1235H52.6352ZM51.5217 73.1058C50.9083 76.1566 50.4648 79.5852 50.2384 83.2972C49.1343 84.7612 47.9548 86.2441 46.6998 87.7081C43.6708 91.2689 40.5191 94.4614 37.49 97.0966C38.2827 93.1863 39.4905 88.8982 41.1041 84.525C41.7741 82.721 42.4724 80.9736 43.2178 79.3018C46.294 77.29 49.106 75.1932 51.5122 73.1152L51.5217 73.1058ZM48.6531 69.0538C50.3422 68.3643 51.8708 67.6276 53.2108 66.8814C52.6918 68.3171 52.2294 69.9417 51.8236 71.7079C49.5401 73.7575 46.8508 75.8355 43.8878 77.8378C45.3976 74.5698 47.0206 71.5946 48.6531 69.0538ZM47.3037 69.5827C45.6524 72.2557 44.0293 75.3443 42.5384 78.7257C40.9814 79.7363 39.3584 80.7281 37.6788 81.682C33.6118 83.9961 29.5353 85.9324 25.742 87.3964C27.884 83.9394 30.5261 80.3314 33.5268 76.8083C34.7819 75.3443 36.0463 73.9464 37.3108 72.6146C40.9909 71.7457 44.3596 70.7162 47.3037 69.5827ZM45.9449 64.8035C46.1619 64.794 46.3695 64.7846 46.5865 64.7751C47.2754 64.7374 47.9454 64.6807 48.587 64.624C49.4552 64.539 50.2855 64.4351 51.0687 64.3029C50.0874 65.4741 49.0966 66.8247 48.1152 68.336C45.2844 69.4788 42.01 70.5461 38.4525 71.4623C41.0003 68.8932 43.5481 66.6453 45.9543 64.8129L45.9449 64.8035ZM43.1329 64.8696C43.6047 64.8696 44.0671 64.8696 44.5295 64.8507C42.0477 66.8153 39.4622 69.1766 36.8861 71.8401C35.0744 72.2652 33.206 72.6524 31.2905 72.983C26.7611 73.767 22.2411 74.2298 18.1175 74.3337C21.2786 71.8401 24.9871 69.3277 29.0729 67.0042C30.7526 66.0502 32.4322 65.1529 34.093 64.3312C37.2353 64.6807 40.2926 64.8601 43.1235 64.8601L43.1329 64.8696ZM15.4848 59.4764C19.3065 58.2013 23.666 57.0962 28.2992 56.2934C30.1959 55.9628 32.0831 55.6889 33.942 55.4811C37.2824 57.1151 40.5379 58.4563 43.567 59.4764C40.5379 60.487 37.2824 61.8377 33.942 63.4717C32.0831 63.2545 30.1959 62.99 28.2992 62.6594C23.666 61.8566 19.3065 60.7515 15.4848 59.4764ZM16.4567 44.5908C16.5322 44.5908 16.6172 44.5908 16.6926 44.5908C20.0331 47.311 24.0906 50.069 28.6483 52.6664C29.96 53.4126 31.2716 54.1115 32.5832 54.7821C31.1206 54.971 29.6391 55.1883 28.1576 55.4433C22.9772 56.3406 18.2213 57.5779 14.1449 58.9947C5.78439 56.0383 0.349137 52.3075 0.896437 49.2756C1.02854 48.5294 1.54754 47.8588 2.38736 47.2637C4.77472 45.5825 9.83252 44.5719 16.4379 44.5719L16.4567 44.5908ZM31.2905 45.9603C33.206 46.2909 35.0744 46.6781 36.8861 47.1032C39.4622 49.7762 42.0477 52.128 44.5295 54.0926C44.0765 54.0832 43.6141 54.0737 43.1329 54.0737C40.2926 54.0737 37.2447 54.2532 34.1024 54.6027C32.4417 53.7809 30.762 52.8931 29.0824 51.9297C24.9965 49.6062 21.2786 47.0937 18.1269 44.6002C19.9104 44.638 21.7599 44.7513 23.6566 44.9308C26.1477 45.1575 28.7238 45.5069 31.2905 45.9509V45.9603ZM47.3037 49.3606C44.3596 48.2272 40.9909 47.1976 37.3108 46.3287C36.0369 45.0063 34.7724 43.599 33.5268 42.135C30.4978 38.5742 27.8745 34.9567 25.7703 31.5564C29.5542 33.0204 33.6212 34.9567 37.6788 37.2613C39.3679 38.2247 40.9909 39.2164 42.5384 40.2176C44.0388 43.599 45.6524 46.6876 47.3037 49.3606ZM51.8331 47.2732C52.2388 49.03 52.7012 50.6357 53.2108 52.0714C51.8614 51.3252 50.3422 50.5979 48.6531 49.899C47.0206 47.3676 45.407 44.3924 43.8972 41.1244C46.9074 43.1645 49.5873 45.2519 51.8331 47.2732ZM51.5217 45.8281C49.1532 43.7879 46.3601 41.6911 43.2178 39.6509C42.4818 37.9697 41.7741 36.2223 41.1041 34.4277C39.4905 30.0546 38.2733 25.7665 37.49 21.8562C40.5191 24.4914 43.6708 27.6839 46.6998 31.2447C47.9454 32.7087 49.1249 34.1916 50.2384 35.6556C50.4648 39.3581 50.9083 42.7867 51.5217 45.8281ZM51.8708 16.7369C53.8052 20.241 55.6736 24.2836 57.2778 28.6284C57.9477 30.4324 58.5328 32.2176 59.0612 33.9649C57.9949 37.5163 57.2212 40.8882 56.7399 43.9579C55.2207 41.2377 53.324 38.3286 51.0876 35.3534C50.9744 33.5304 50.9178 31.6508 50.9178 29.7335C50.9178 25.0959 51.2669 20.6661 51.8708 16.7369ZM67.5161 45.8281C68.1294 42.7867 68.5729 39.3487 68.7994 35.6462C69.9034 34.1727 71.0924 32.6993 72.3285 31.2447C75.367 27.6744 78.5281 24.4819 81.5666 21.8373C80.7645 25.8043 79.5283 30.0924 77.9242 34.4277C77.2637 36.2223 76.5559 37.9697 75.8105 39.6509C72.6777 41.6911 69.8845 43.7879 67.5161 45.8281ZM70.3847 49.899C68.6956 50.5979 67.1669 51.3252 65.8175 52.0714C65.9025 51.8258 65.9968 51.5802 66.0723 51.3252C66.4875 50.0879 66.865 48.7278 67.1952 47.2732C69.441 45.2519 72.1304 43.1645 75.1311 41.1244C73.6213 44.383 71.9983 47.3582 70.3752 49.8895L70.3847 49.899ZM71.7246 49.37C73.3759 46.697 74.9895 43.6179 76.4899 40.2365C78.0374 39.2259 79.6604 38.2341 81.3495 37.2707C85.4071 34.9661 89.4741 33.0298 93.258 31.5658C91.1538 34.9661 88.5305 38.5836 85.5015 42.1445C84.2559 43.6085 82.982 45.0158 81.7175 46.3381C78.0374 47.2071 74.6687 48.2366 71.7246 49.37ZM73.0928 54.1493C71.215 54.2343 69.4977 54.4043 67.969 54.6499C68.9504 53.4787 69.9412 52.128 70.9225 50.6168C73.7534 49.4645 77.0277 48.3972 80.5852 47.4904C78.0374 50.0595 75.4896 52.3075 73.0834 54.1398L73.0928 54.1493ZM75.8954 54.0832C75.4236 54.0832 74.9612 54.0832 74.4988 54.1021C76.9806 52.1375 79.5661 49.7856 82.1516 47.1126C83.9539 46.6876 85.8223 46.3003 87.7473 45.9698C92.2861 45.1764 96.806 44.723 100.949 44.6191C97.7402 47.141 94.0035 49.6439 89.9554 51.9486C88.2757 52.9025 86.5961 53.7998 84.9353 54.6216C81.793 54.2721 78.7451 54.0926 75.9048 54.0926L75.8954 54.0832ZM69.1485 57.8046C70.479 57.0301 71.8945 56.0761 73.3476 54.9805C74.1686 54.9521 75.0178 54.9332 75.886 54.9332C78.2733 54.9332 80.8305 55.0655 83.4632 55.3205C80.1794 56.8695 77.0089 58.1257 74.0931 59.0513C72.3474 58.513 70.6866 58.0974 69.1485 57.814V57.8046ZM65.7515 59.4858C66.4592 59.2119 67.1952 58.8719 67.9595 58.4657C69.3939 58.6735 70.9508 59.023 72.6116 59.4858C70.9508 59.9486 69.3939 60.2887 67.9595 60.5059C67.1952 60.0998 66.4498 59.7597 65.7515 59.4858ZM67.969 64.3123C69.4977 64.5673 71.215 64.7374 73.0928 64.8129C75.4991 66.6453 78.0374 68.8932 80.5946 71.4623C77.0372 70.5556 73.7628 69.4883 70.932 68.336C69.9506 66.8247 68.9598 65.4741 67.9784 64.3029L67.969 64.3123ZM65.3269 65.6252C64.9966 64.8224 64.6474 64.1045 64.2983 63.4434C65.0155 63.6795 65.7987 63.8873 66.6574 64.0667C67.5915 65.1152 68.5446 66.343 69.4977 67.7315C67.9407 67.042 66.5441 66.3336 65.3363 65.6158L65.3269 65.6252ZM66.3082 68.3738C66.1478 67.8543 65.978 67.3631 65.8175 66.8909C67.1575 67.637 68.6956 68.3737 70.3847 69.0727C72.0171 71.6135 73.6307 74.5792 75.1405 77.8473C72.1304 75.8071 69.441 73.7197 67.1952 71.6985C66.931 70.5273 66.6291 69.4316 66.3177 68.3832L66.3082 68.3738ZM62.8451 67.212C62.8074 66.343 62.7319 65.5402 62.6187 64.8035C63.2131 65.2663 63.8831 65.7385 64.6286 66.2014C64.9305 66.9475 65.2136 67.7504 65.4778 68.6193C65.676 69.2616 65.8647 69.9322 66.044 70.6217C64.8079 69.4505 63.7321 68.2982 62.8451 67.212ZM62.496 73.5497C62.7225 71.7646 62.8451 70.0928 62.864 68.5721C63.8737 69.7339 65.0626 70.9428 66.412 72.1707C67.082 75.146 67.5538 78.4801 67.8369 82.0221C65.7137 79.0846 63.9114 76.2133 62.5054 73.5497H62.496ZM57.4099 63.9251C57.6835 63.6606 57.9289 63.4056 58.1553 63.1506C58.1553 63.4811 58.1742 63.8306 58.212 64.199C57.9194 64.7657 57.542 65.3607 57.1079 65.9841C57.174 65.238 57.2683 64.5485 57.4099 63.9345V63.9251ZM55.985 62.9617C56.3247 62.8105 56.655 62.65 56.9475 62.4894C56.8343 62.8011 56.7305 63.1411 56.6455 63.5C56.1643 63.9251 55.617 64.3595 54.9848 64.794C55.3056 64.114 55.6359 63.5095 55.985 62.9711V62.9617ZM54.7206 63.4434C54.3525 64.0951 54.0128 64.8318 53.6826 65.6252C52.4747 66.343 51.0687 67.0514 49.5118 67.7409C50.4648 66.3525 51.4179 65.1246 52.3521 64.0762C53.2108 63.8967 54.0034 63.6889 54.7206 63.4434ZM51.0499 58.4657C51.8142 58.8719 52.5597 59.2119 53.2579 59.4858C52.5502 59.7597 51.8142 60.0998 51.0499 60.5059C49.6156 60.2981 48.0586 59.9581 46.3978 59.4858C48.0586 59.023 49.6156 58.6735 51.0499 58.4657ZM49.8609 57.8046C48.3228 58.0879 46.6715 58.5035 44.9258 59.0419C42.01 58.1257 38.83 56.8601 35.5462 55.3111C38.1789 55.056 40.7267 54.9238 43.1235 54.9238C44.001 54.9238 44.8503 54.9427 45.6618 54.971C47.115 56.0667 48.5304 57.0112 49.8609 57.7951V57.8046ZM51.9557 55.6983C52.5314 56.3311 53.107 56.8884 53.6637 57.3796C52.8805 57.3984 52.0501 57.474 51.1631 57.5968C49.9081 56.9167 48.5682 56.0761 47.1716 55.0749C48.9362 55.1977 50.5403 55.4055 51.9557 55.6983ZM48.0869 50.6262C49.0683 52.1375 50.0685 53.4881 51.0404 54.6593C49.5118 54.4043 47.7944 54.2437 45.926 54.1587C43.5198 52.3264 40.972 50.0784 38.4242 47.5093C41.9817 48.4161 45.256 49.4834 48.0869 50.6357V50.6262ZM56.1454 50.3996C55.1452 49.2472 53.9657 48.0477 52.6163 46.8198C51.9652 43.8918 51.4745 40.5577 51.182 36.9685C53.2957 39.8965 55.098 42.7678 56.5134 45.4219C56.2775 47.2165 56.1549 48.8789 56.1454 50.3996ZM59.0518 51.1079C58.7781 51.9391 58.5705 52.7136 58.4196 53.4409C58.0232 52.7986 57.5609 52.1469 57.023 51.4669C56.9947 50.0784 57.0702 48.5294 57.2495 46.8576C57.9949 48.3688 58.6083 49.8045 59.0612 51.1174L59.0518 51.1079ZM61.5807 45.2803C61.0239 46.3381 60.5333 47.3771 60.0992 48.3783C59.8822 48.8789 59.6934 49.3606 59.5141 49.8234C58.9763 48.3972 58.278 46.8765 57.4382 45.2614C57.8439 42.2861 58.5328 38.9898 59.5141 35.5234C60.4955 38.9898 61.1844 42.2956 61.5901 45.2708L61.5807 45.2803ZM62.2884 43.9863C61.8072 40.9166 61.0334 37.5352 59.9577 33.9744C60.4861 32.227 61.0806 30.4324 61.7411 28.6378C63.3452 24.293 65.2042 20.2505 67.148 16.7463C67.7614 20.6755 68.1011 25.1053 68.1011 29.7429C68.1011 31.6603 68.0445 33.5399 67.9218 35.3628C65.7326 38.2908 63.8171 41.2094 62.2695 43.9768L62.2884 43.9863ZM66.3931 46.8293C65.0532 48.0477 63.8642 49.2472 62.8734 50.409C62.8546 48.8883 62.7319 47.2071 62.496 45.4125C63.9303 42.7112 65.7326 39.8587 67.8274 36.9685C67.5444 40.5671 67.0442 43.9107 66.3931 46.8387V46.8293ZM64.6286 52.7892C63.8831 53.2426 63.2131 53.7148 62.6187 54.1776C62.7319 53.4315 62.8074 52.6286 62.8451 51.7691C63.7227 50.6829 64.7984 49.5495 66.0157 48.3783C65.9685 48.5672 65.9213 48.7561 65.8742 48.9355C65.4967 50.3429 65.0815 51.6369 64.6286 52.7797V52.7892ZM64.2889 55.5377C64.6569 54.886 64.9966 54.1587 65.3269 53.3559C66.5347 52.6381 67.9312 51.9202 69.4882 51.2402C68.5352 52.6286 67.5821 53.8659 66.6574 54.9049C65.7987 55.0844 65.006 55.2922 64.2889 55.5377ZM64.0341 57.4079C63.6566 57.4362 63.2886 57.474 62.9584 57.5307C63.166 57.2851 63.3736 57.0112 63.5717 56.7278C64.1662 56.4823 64.8456 56.265 65.5816 56.0572C65.0532 56.5767 64.5342 57.0301 64.0341 57.4079ZM65.3457 57.3984C65.9119 56.9073 66.4781 56.3406 67.0537 55.7172C68.4691 55.4244 70.0733 55.2166 71.8378 55.0938C70.4413 56.0856 69.1013 56.9356 67.8463 57.6157C66.9593 57.4929 66.1195 57.4173 65.3457 57.3984ZM64.2983 59.0136C63.9963 58.9286 63.7038 58.8624 63.4207 58.8152C63.7133 58.6547 63.9963 58.4657 64.2889 58.2485C64.5059 58.2391 64.7229 58.2391 64.9305 58.2391C65.4118 58.2391 65.9308 58.2674 66.4592 58.3146C65.7704 58.6263 65.1098 58.8813 64.487 59.0702C64.4304 59.0513 64.3644 59.0325 64.3077 59.0136H64.2983ZM65.3457 61.611C66.1289 61.5921 66.9593 61.5165 67.8463 61.3938C69.1013 62.0644 70.4413 62.9144 71.8378 63.9156C70.0733 63.7928 68.4691 63.5756 67.0537 63.2922C66.4781 62.6594 65.9025 62.0927 65.3457 61.611ZM62.9678 61.4788C63.3075 61.5354 63.6566 61.5638 64.0341 61.5921C64.5342 61.9699 65.0532 62.4233 65.5816 62.9428C64.8456 62.7444 64.1756 62.5272 63.5812 62.2816C63.383 61.9888 63.1754 61.7243 62.9678 61.4788ZM62.0619 62.5083C62.3544 62.6689 62.6753 62.8294 63.015 62.9805C63.3641 63.5095 63.6944 64.1234 64.0247 64.8035C63.4019 64.3784 62.8451 63.944 62.3733 63.5189C62.2884 63.16 62.1846 62.8294 62.0714 62.5083H62.0619ZM60.8069 64.2368C60.8447 63.8684 60.8635 63.5095 60.873 63.1695C61.0994 63.4245 61.3353 63.6889 61.6184 63.944C61.76 64.5673 61.8543 65.2568 61.9204 66.003C61.4769 65.3891 61.1089 64.794 60.8163 64.2273L60.8069 64.2368ZM54.9942 61.5921C55.3717 61.5638 55.7397 61.526 56.0699 61.4693C55.8623 61.7149 55.6642 61.9888 55.466 62.2722C54.8715 62.5177 54.1921 62.7444 53.4561 62.9428C53.9845 62.4233 54.5035 61.9699 55.0036 61.5921H54.9942ZM53.6826 61.611C53.1164 62.0927 52.5502 62.6594 51.9746 63.2922C50.5592 63.5756 48.955 63.7834 47.1905 63.9156C48.587 62.9144 49.927 62.0644 51.182 61.3938C52.069 61.5165 52.9088 61.5921 53.6826 61.611ZM55.6076 60.1942C55.3245 60.3642 55.032 60.5437 54.7394 60.7609C54.5224 60.7704 54.3054 60.7798 54.0978 60.7798C53.6165 60.7798 53.0975 60.7515 52.5691 60.7043C53.2579 60.3926 53.9279 60.1375 54.5413 59.9392C54.9093 60.0525 55.2584 60.1281 55.6076 60.1942ZM54.7394 58.2485C55.032 58.4657 55.3245 58.6547 55.6076 58.8152C55.2679 58.8813 54.9093 58.9663 54.5413 59.0702C53.9185 58.8813 53.2579 58.6263 52.5691 58.3146C53.0975 58.2674 53.6165 58.2391 54.0978 58.2391C54.3054 58.2391 54.5224 58.2391 54.7394 58.2485ZM55.4566 56.7278C55.6547 57.0206 55.8623 57.2851 56.0699 57.5307C55.7302 57.474 55.3811 57.4362 55.0036 57.4079C54.5035 57.0301 53.9845 56.5767 53.4561 56.0572C54.1921 56.2556 54.8621 56.4728 55.4566 56.7278ZM53.7014 53.3653C53.7014 53.3653 53.7109 53.4031 53.7203 53.422C53.7486 53.4787 53.7675 53.5354 53.7958 53.592C53.8619 53.7431 53.9185 53.8754 53.9845 54.0171C54.2299 54.5649 54.4846 55.0749 54.7394 55.5377C54.0223 55.3016 53.2296 55.0938 52.3709 54.9049C51.4462 53.8565 50.4931 52.6286 49.5401 51.2402C51.0971 51.9297 52.503 52.6381 53.7109 53.3559L53.7014 53.3653ZM58.1553 55.8305C57.9383 55.5755 57.693 55.3111 57.4193 55.056C57.2778 54.4327 57.174 53.7432 57.1079 52.997C57.5514 53.6109 57.91 54.1965 58.212 54.7632C58.1742 55.141 58.1553 55.4905 58.1459 55.8305H58.1553ZM59.9388 54.6216C59.7689 54.9521 59.6274 55.2827 59.5141 55.6039C59.4009 55.2922 59.2594 54.971 59.099 54.6404C59.1839 54.0076 59.3254 53.3276 59.5236 52.5908C59.7217 53.3181 59.8633 53.9982 59.9482 54.631L59.9388 54.6216ZM61.609 55.056C61.3353 55.3205 61.09 55.5755 60.8635 55.84C60.8635 55.5 60.8447 55.1505 60.7975 54.7727C61.0994 54.206 61.4674 53.6109 61.9015 52.997C61.8355 53.7432 61.7317 54.4327 61.5996 55.056H61.609ZM63.0339 56.0194C62.6847 56.1706 62.3639 56.3311 62.0619 56.5011C62.1752 56.1895 62.279 55.8494 62.3639 55.4905C62.8451 55.0655 63.3924 54.631 64.0247 54.206C63.7038 54.886 63.3736 55.4905 63.0339 56.0289V56.0194ZM56.6644 55.4905C56.7493 55.8494 56.8531 56.18 56.9664 56.5011C56.6739 56.3311 56.353 56.18 56.0133 56.0289C55.6642 55.5 55.3339 54.886 55.0036 54.206C55.6264 54.631 56.1832 55.0655 56.655 55.4905H56.6644ZM64.2983 60.7515C64.0058 60.5342 63.7133 60.3548 63.4302 60.1848C63.7699 60.1187 64.1285 60.0431 64.4965 59.9298C65.1193 60.1187 65.7798 60.3737 66.4686 60.6948C65.9402 60.742 65.4212 60.7704 64.94 60.7704C64.7324 60.7704 64.5248 60.7704 64.2983 60.7515ZM62.0053 51.4669C61.4674 52.1469 60.9956 52.8175 60.5993 53.4503C60.4483 52.7136 60.2407 51.9297 59.9671 51.1079C60.2313 50.3523 60.5333 49.5589 60.9013 48.7183C61.1655 48.1044 61.4674 47.4715 61.7788 46.8293C61.9581 48.5105 62.0336 50.0784 62.0053 51.4763V51.4669ZM56.1832 51.7691C56.2115 52.6286 56.287 53.4315 56.4002 54.1776C55.8057 53.7148 55.1358 53.2426 54.3997 52.7892C53.8902 51.4952 53.4184 50.0123 53.0032 48.3783C54.2204 49.5495 55.2962 50.6829 56.1832 51.7691ZM59.4575 66.2014C59.2877 65.5591 59.165 64.9546 59.0895 64.3879C59.2594 64.0573 59.4009 63.7267 59.5141 63.4056C59.6368 63.7267 59.7689 64.0479 59.9388 64.3784C59.8539 65.0113 59.7123 65.6913 59.5141 66.4186C59.4953 66.343 59.4764 66.2769 59.4575 66.2014ZM61.7788 72.1329C61.0334 70.6217 60.4295 69.1955 59.9671 67.8732C60.2407 67.0514 60.4483 66.2675 60.5993 65.5307C60.9956 66.173 61.4674 66.8342 62.0053 67.5237C62.0336 68.9121 61.9581 70.4611 61.7788 72.1329ZM35.5556 63.6606C38.8394 62.1116 42.01 60.8554 44.9352 59.9392C46.6809 60.4776 48.3417 60.8932 49.8703 61.1765C48.5398 61.9605 47.1244 62.905 45.6712 63.9912C44.8503 64.029 44.0105 64.0479 43.1329 64.0479C40.7455 64.0479 38.1883 63.9156 35.5556 63.6606ZM54.4752 69.1671C54.0128 69.6583 53.5127 70.1494 52.9937 70.65C53.4089 69.0066 53.8807 67.5142 54.3903 66.2108C55.1357 65.748 55.7963 65.2852 56.3908 64.8129C56.2775 65.5591 56.202 66.3619 56.1643 67.2309C55.6642 67.8543 55.098 68.506 54.4658 69.1671H54.4752ZM57.0324 67.5331C57.5703 66.8531 58.0421 66.1825 58.4384 65.5496C58.5894 66.2864 58.797 67.0609 59.0706 67.8826C58.6177 69.1955 58.0044 70.6312 57.2589 72.1424C57.0796 70.4706 57.0041 68.9216 57.0324 67.5331ZM64.1096 5.46877C64.1473 5.55377 64.1851 5.63878 64.2323 5.73323C64.2794 5.83713 64.3266 5.94103 64.3738 6.04492C65.4212 8.50067 66.2988 11.7026 66.9499 15.3957C64.8079 19.1265 62.7413 23.5374 60.9579 28.345C60.4389 29.7524 59.9577 31.1502 59.5236 32.5198C59.0895 31.1502 58.6083 29.7618 58.0893 28.345C56.3153 23.5374 54.2487 19.1265 52.0973 15.3957C53.6071 6.78165 56.4002 0.840622 59.5236 0.840622C59.6651 0.840622 59.7972 0.850067 59.9388 0.878403C61.4014 1.13342 62.8546 2.74855 64.119 5.46877H64.1096ZM51.0876 83.6277C53.324 80.6525 55.2301 77.7434 56.7399 75.0232C57.2212 78.0834 57.9949 81.4554 59.0706 85.0162C58.5422 86.7635 57.9477 88.5581 57.2872 90.3527C55.683 94.6975 53.8241 98.7495 51.8803 102.244C51.2763 98.315 50.9272 93.8852 50.9272 89.2476C50.9272 87.3303 50.9838 85.4507 51.0971 83.6277H51.0876ZM68.12 89.2476C68.12 93.8852 67.7708 98.315 67.1669 102.244C65.2325 98.7495 63.3641 94.6975 61.76 90.3527C61.09 88.5487 60.505 86.7635 59.9765 85.0162C61.0428 81.4648 61.8166 78.0929 62.2978 75.0232C63.8171 77.7434 65.7137 80.6525 67.9595 83.6372C68.0633 85.4696 68.12 87.3397 68.12 89.2476ZM98.1743 97.6539C98.212 97.7861 98.2498 97.9183 98.2875 98.0411C98.3347 98.2206 98.3913 98.4095 98.4385 98.5889C98.4385 98.6078 98.4385 98.6267 98.4479 98.6362C99.0613 101.186 98.9481 103.094 98.0611 104.133C97.9761 104.237 97.8723 104.332 97.7685 104.426C97.2684 104.842 96.589 105.049 95.7397 105.049C92.6352 105.049 87.8511 102.405 82.6234 98.0506C81.8402 93.8474 80.538 89.1532 78.7263 84.2606C78.2073 82.8532 77.66 81.4931 77.1032 80.1614C78.3299 80.9264 79.6038 81.7009 80.9249 82.4471C85.3788 84.9784 89.8421 87.0658 93.9657 88.5865C95.8907 91.8545 97.3156 94.8864 98.1082 97.4366C98.1271 97.5027 98.1554 97.5783 98.1743 97.6539ZM102.581 44.6191C111.508 44.6191 117.603 46.4609 118.122 49.3228C118.5 51.4291 115.858 54.0737 110.875 56.5578C109.101 57.4457 107.101 58.2768 104.931 59.0513C100.845 57.6251 96.07 56.3973 90.8801 55.4905C89.3986 55.2355 87.9171 55.0088 86.4545 54.8293C87.7662 54.1587 89.0684 53.4598 90.3894 52.7136C94.8339 50.1823 98.9103 47.4149 102.336 44.638C102.421 44.638 102.506 44.638 102.59 44.638L102.581 44.6191ZM106.176 59.4953C108.016 58.8152 109.724 58.0785 111.262 57.3134C116.688 54.6027 119.425 51.7124 118.962 49.1717C118.377 45.8847 112.555 43.8824 103.345 43.7785C104.836 42.5128 106.195 41.2472 107.375 40.0004C111.527 35.6273 113.102 31.9909 111.791 29.7524C110.97 28.345 109.149 27.6366 106.374 27.6366C103.421 27.6366 99.552 28.4584 95.2585 29.9413C99.5992 22.3284 100.977 16.1229 98.3158 13.9222C97.6553 13.3838 96.7872 13.1005 95.7397 13.1005C92.6164 13.1005 87.9454 15.5751 82.8405 19.7027C83.1613 17.7759 83.3689 15.9529 83.4727 14.2339C83.8029 8.2551 82.6329 4.47702 80.17 3.58917C79.8114 3.45694 79.4245 3.39082 79.0188 3.39082C75.8577 3.39082 71.6397 7.59394 67.6387 14.2245C67.0254 11.0414 66.2327 8.2551 65.2985 6.02603C65.2891 5.98825 65.2702 5.95047 65.2608 5.92214C65.1853 5.75212 65.1098 5.59155 65.0438 5.42154C64.9777 5.28931 64.9211 5.15708 64.8645 5.02484C64.855 4.99651 64.8362 4.97762 64.8267 4.94928C63.2886 1.72847 61.4674 0 59.533 0C56.0511 0 53.0598 5.63878 51.4179 14.2339C47.4075 7.60338 43.1895 3.40027 40.0378 3.40027C39.6321 3.40027 39.2452 3.46639 38.8866 3.59862C35.6122 4.76982 34.763 11.0698 36.1973 19.6932C31.0923 15.5751 26.4214 13.1099 23.3074 13.1099C22.26 13.1099 21.3824 13.3838 20.7313 13.9317C18.0609 16.1324 19.448 22.3379 23.7887 29.9507C19.4858 28.4678 15.6358 27.6461 12.6728 27.6461C9.90801 27.6461 8.07739 28.3545 7.25644 29.7618C5.52018 32.737 8.96439 38.0925 15.683 43.7879C10.1345 43.854 5.82214 44.6002 3.14225 45.9131C1.37768 46.7726 0.320829 47.8777 0.0849237 49.1811C-0.518994 52.5531 4.57656 56.4256 12.8521 59.5142C4.53881 62.5461 -0.556738 66.4186 0.0471788 69.8C0.64166 73.0869 6.44493 75.0798 15.6452 75.1932C8.92665 80.8886 5.473 86.2441 7.2187 89.2193C8.03965 90.6266 9.86083 91.335 12.6351 91.335C15.598 91.335 19.4669 90.5038 23.7698 89.021C22.7979 90.7211 21.9675 92.3645 21.2881 93.9324C18.9007 99.4484 18.6931 103.387 20.6936 105.049C21.3541 105.597 22.2223 105.871 23.2697 105.871C26.3836 105.871 31.0546 103.406 36.1595 99.2879C34.7252 107.911 35.5745 114.211 38.8489 115.382C39.2169 115.515 39.5943 115.581 40.0001 115.581C43.1518 115.581 47.3698 111.378 51.3801 104.747C53.022 113.333 56.0133 118.972 59.4953 118.972C62.9772 118.972 65.9685 113.333 67.6104 104.747C71.6114 111.378 75.8388 115.581 78.9905 115.581C79.3962 115.581 79.7831 115.515 80.1417 115.382C83.4161 114.211 84.2653 107.911 82.831 99.2879C87.9266 103.406 92.5975 105.871 95.7209 105.871C96.7777 105.871 97.6459 105.597 98.297 105.049C99.8728 103.746 100.071 101.026 98.9292 97.2383C98.9009 97.1249 98.8631 97.021 98.8348 96.9077C98.8065 96.8227 98.7688 96.7282 98.7405 96.6338C97.995 94.3669 96.8155 91.7884 95.2396 89.021C99.5331 90.5038 103.393 91.335 106.355 91.335C109.12 91.335 110.951 90.6266 111.772 89.2193C113.508 86.2441 110.064 80.8886 103.345 75.1932C112.546 75.0798 118.358 73.0869 118.943 69.8C119.547 66.4186 114.442 62.5461 106.157 59.4575L106.176 59.4953Z" fill="#F8AFA6"/>
</svg>
